<?xml version="1.0" encoding="UTF-8" standalone="no"?><!-- Generator: Gravit.io --><svg xmlns="http://www.w3.org/2000/svg" xmlns:xlink="http://www.w3.org/1999/xlink" style="isolation:isolate" viewBox="0 0 1024 768" width="1024pt" height="768pt"><defs><clipPath id="_clipPath_j1UTIkXmha2VV7ovcbTKcvYPPN7xTq02"><rect width="1024" height="768"/></clipPath></defs><g clip-path="url(#_clipPath_j1UTIkXmha2VV7ovcbTKcvYPPN7xTq02)"><path d=" M 1008.886 51.604 C 1008.886 32.229 987.721 16.5 961.612 16.5 L 67.119 16.5 C 41.05 16.5 19.886 32.229 19.886 51.604 L 19.886 716.396 C 19.886 735.771 41.05 751.5 67.119 751.5 L 961.612 751.5 C 987.721 751.5 1008.886 735.771 1008.886 716.396 L 1008.886 51.604 Z " fill-rule="evenodd" fill="rgb(3,47,94)"/><g><g opacity="0.99"><path d=" M 773 66 L 797 90.556 L 773 115.114 L 275 115.114 L 245 90.556 L 275 66 L 773 66 Z " fill-rule="evenodd" fill="rgb(179,210,236)"/></g><g clip-path="url(#_clipPath_JTlJDJCGgZYNKkIcc57jc7PGTKbnrWRw)"><text transform="matrix(1,0,0,1,461.152,95.158)" style="font-family:'Cantarell';font-weight:400;font-size:20px;font-style:normal;fill:#000000;stroke:none;">GreenFuture</text></g><defs><clipPath id="_clipPath_JTlJDJCGgZYNKkIcc57jc7PGTKbnrWRw"><rect x="0" y="0" width="411.429" height="31.404" transform="matrix(1,0,0,1,315.286,74.289)"/></clipPath></defs></g><g><g opacity="0.99"><path d=" M 687.148 139.667 L 703.12 154.833 L 687.148 170 L 355.725 170 L 335.759 154.833 L 355.725 139.667 L 687.148 139.667 Z " fill-rule="evenodd" fill="rgb(223,251,247)"/></g><g clip-path="url(#_clipPath_hz6aiu5OWwRTPo0NxARaSUtQ8zF0qy6B)"><text transform="matrix(1,0,0,1,369.934,158.189)" style="font-family:'Cantarell';font-weight:400;font-size:12px;font-style:normal;fill:#000000;stroke:none;">- 11.11.2020, 0:00 - 12.11.2020, 0:00, Motor RPM </text></g><defs><clipPath id="_clipPath_hz6aiu5OWwRTPo0NxARaSUtQ8zF0qy6B"><rect x="0" y="0" width="306.066" height="19.333" transform="matrix(1,0,0,1,369.934,145.667)"/></clipPath></defs><g opacity="0.99"><path d=" M 687.088 221.667 L 703.06 236.833 L 687.088 252 L 355.665 252 L 335.699 236.833 L 355.665 221.667 L 687.088 221.667 Z " fill-rule="evenodd" fill="rgb(223,251,247)"/></g><g clip-path="url(#_clipPath_IwUIF3fqVBt8xn0qZbCWBjgDF7JtW9oT)"><text transform="matrix(1,0,0,1,369.874,240.189)" style="font-family:'Cantarell';font-weight:400;font-size:12px;font-style:normal;fill:#000000;stroke:none;">- 10.11.2020, 0:00 - 11.11.2020, 0:00, Motor RPM </text></g><defs><clipPath id="_clipPath_IwUIF3fqVBt8xn0qZbCWBjgDF7JtW9oT"><rect x="0" y="0" width="306.066" height="19.333" transform="matrix(1,0,0,1,369.874,227.667)"/></clipPath></defs><g opacity="0.99"><path d=" M 701.642 181 L 719 196.166 L 701.642 211.333 L 341.457 211.333 L 319.759 196.166 L 341.457 181 L 701.642 181 Z " fill-rule="evenodd" fill="rgb(252,253,222)"/></g><g clip-path="url(#_clipPath_CWodVuJsYVAyhpCqVLwVPzrbjkF5tsiY)"><text transform="matrix(1,0,0,1,353.934,199.521)" style="font-family:'Cantarell';font-weight:400;font-size:12px;font-style:normal;fill:#000000;stroke:none;">- 11.11.2020, 0:00 - 12.11.2020, 0:00, Speedometer data</text></g><defs><clipPath id="_clipPath_CWodVuJsYVAyhpCqVLwVPzrbjkF5tsiY"><rect x="0" y="0" width="375.066" height="19.333" transform="matrix(1,0,0,1,353.934,187)"/></clipPath></defs><g opacity="0.99"><path d=" M 701.642 262 L 719 277.166 L 701.642 292.333 L 341.457 292.333 L 319.759 277.166 L 341.457 262 L 701.642 262 Z " fill-rule="evenodd" fill="rgb(252,253,222)"/></g><g clip-path="url(#_clipPath_nB0N11gKC6RN49lF2F02eeekDfc9iFIm)"><text transform="matrix(1,0,0,1,353.934,280.521)" style="font-family:'Cantarell';font-weight:400;font-size:12px;font-style:normal;fill:#000000;stroke:none;">- 10.11.2020, 0:00 - 11.11.2020, 0:00, Speedometer data</text></g><defs><clipPath id="_clipPath_nB0N11gKC6RN49lF2F02eeekDfc9iFIm"><rect x="0" y="0" width="375.066" height="19.333" transform="matrix(1,0,0,1,353.934,268)"/></clipPath></defs><g opacity="0.99"><path d=" M 687.088 302 L 703.06 317.166 L 687.088 332.333 L 355.665 332.333 L 335.699 317.166 L 355.665 302 L 687.088 302 Z " fill-rule="evenodd" fill="rgb(223,251,247)"/></g><g clip-path="url(#_clipPath_lMZFhDnRADNXUbtyUMsx30UxIazrtq2o)"><text transform="matrix(1,0,0,1,369.874,320.521)" style="font-family:'Cantarell';font-weight:400;font-size:12px;font-style:normal;fill:#000000;stroke:none;">- 9.11.2020, 9:32 - 10.11.2020, 0:00, Motor RPM </text></g><defs><clipPath id="_clipPath_lMZFhDnRADNXUbtyUMsx30UxIazrtq2o"><rect x="0" y="0" width="306.066" height="19.333" transform="matrix(1,0,0,1,369.874,308)"/></clipPath></defs><g opacity="0.44"><linearGradient id="_lgradient_0" x1="0.4999999999999999" y1="0" x2="0.49999999999999994" y2="1" gradientTransform="matrix(367.361,0,0,30.333,328.32,384)" gradientUnits="userSpaceOnUse"><stop offset="0%" stop-opacity="1" style="stop-color:rgb(223,251,247)"/><stop offset="68.75%" stop-opacity="0.1" style="stop-color:rgb(0,2,4)"/></linearGradient><path d=" M 679.708 384 L 695.68 399.166 L 679.708 414.333 L 348.285 414.333 L 328.32 399.166 L 348.285 384 L 679.708 384 Z " fill-rule="evenodd" fill="url(#_lgradient_0)" style="mix-blend-mode:linear_dodge;"/></g><g style="mix-blend-mode:normal;" opacity="0.36"><g clip-path="url(#_clipPath_MokBwYS33vyKUpxds3LWuNbYXyTfhI5z)"><text transform="matrix(1,0,0,1,362.494,402.521)" style="font-family:'Cantarell';font-weight:400;font-size:12px;font-style:normal;fill:#000000;stroke:none;">- 9.11.2020, 9:32 - 10.11.2020, 0:00, Motor RPM </text></g><defs><clipPath id="_clipPath_MokBwYS33vyKUpxds3LWuNbYXyTfhI5z"><rect x="0" y="0" width="306.066" height="19.333" transform="matrix(1,0,0,1,362.494,390)"/></clipPath></defs></g><g opacity="0.99"><path d=" M 701.642 342.333 L 719 357.499 L 701.642 372.665 L 341.457 372.665 L 319.759 357.499 L 341.457 342.333 L 701.642 342.333 Z " fill-rule="evenodd" fill="rgb(252,253,222)"/></g><g clip-path="url(#_clipPath_fhxRkjQZqPxRXWwx45WbExc23CuzFdI7)"><text transform="matrix(1,0,0,1,353.934,360.854)" style="font-family:'Cantarell';font-weight:400;font-size:12px;font-style:normal;fill:#000000;stroke:none;">- 9.11.2020, 9:32 - 10.11.2020, 0:00, Speedometer data</text></g><defs><clipPath id="_clipPath_fhxRkjQZqPxRXWwx45WbExc23CuzFdI7"><rect x="0" y="0" width="375.066" height="19.333" transform="matrix(1,0,0,1,353.934,348.333)"/></clipPath></defs></g><path d=" M 466.978 665.012 C 466.978 678.85 455.106 690.108 440.513 690.108 C 425.92 690.108 414.047 678.85 414.047 665.012 C 414.047 651.174 425.92 639.916 440.513 639.916 C 455.106 639.916 466.978 651.174 466.978 665.012 Z " fill="rgb(203,249,249)"/><path d=" M 590.8 665.012 C 590.8 678.85 578.928 690.108 564.335 690.108 C 549.742 690.108 537.869 678.85 537.869 665.012 C 537.869 651.174 549.742 639.916 564.335 639.916 C 578.928 639.916 590.8 651.174 590.8 665.012 Z " fill="rgb(203,249,249)"/><path d=" M 615.848 621.355 L 615.848 665.865 C 615.848 667.845 614.155 669.45 612.068 669.45 L 603.088 669.45 C 601 669.45 599.307 667.845 599.307 665.865 C 599.307 663.885 601 662.28 603.088 662.28 L 608.287 662.28 L 608.287 621.355 C 608.287 615.632 605.377 610.212 600.503 606.857 C 586.03 596.894 558.223 581.919 523.704 583.623 L 526.165 601.598 C 526.434 603.561 524.973 605.36 522.903 605.615 C 520.832 605.87 518.935 604.484 518.667 602.522 L 516.165 584.258 C 493.867 586.907 473.002 596.176 455.606 611.235 L 551.131 611.235 C 556.872 611.235 562.233 608.806 565.84 604.57 C 567.151 603.029 569.532 602.788 571.157 604.032 C 572.781 605.275 573.035 607.533 571.724 609.073 C 566.675 615.004 559.169 618.405 551.131 618.405 L 446.929 618.405 L 404.868 629.484 C 399.977 630.773 396.561 635.034 396.561 639.848 L 396.561 661.339 L 402.232 661.339 C 404.32 661.339 406.013 662.945 406.013 664.925 C 406.013 666.904 404.32 668.51 402.232 668.51 L 392.78 668.51 C 390.692 668.51 388.999 666.904 388.999 664.925 L 388.999 639.848 C 388.999 631.825 394.692 624.723 402.843 622.576 L 444.341 611.645 C 485.526 570.858 549.463 562.861 604.945 601.055 C 611.772 605.755 615.848 613.343 615.848 621.355 L 615.848 621.355 Z " fill="rgb(203,249,249)"/><path d=" M 459.417 665.012 C 459.417 655.128 450.936 647.086 440.513 647.086 C 430.089 647.086 421.609 655.128 421.609 665.012 C 421.609 674.896 430.089 682.938 440.513 682.938 C 450.936 682.938 459.417 674.897 459.417 665.012 Z " fill="rgb(203,249,249)"/><path d=" M 583.239 665.012 C 583.239 655.128 574.758 647.086 564.335 647.086 C 553.911 647.086 545.431 655.128 545.431 665.012 C 545.431 674.896 553.911 682.938 564.335 682.938 C 574.758 682.938 583.239 674.897 583.239 665.012 Z " fill="rgb(203,249,249)"/><path d=" M 527.472 662.323 L 478.794 662.323 C 476.706 662.323 475.013 663.928 475.013 665.908 C 475.013 667.888 476.706 669.493 478.794 669.493 L 527.472 669.493 C 529.56 669.493 531.252 667.888 531.252 665.908 C 531.252 663.928 529.56 662.323 527.472 662.323 Z " fill="rgb(203,249,249)"/><path d=" M 508.488 541.382 C 512.91 545.575 509.816 552.857 503.475 552.857 C 497.207 552.857 493.994 545.619 498.462 541.382 C 499.802 540.112 501.582 539.413 503.475 539.413 C 506.659 539.413 508.488 541.382 508.488 541.382 Z " fill="rgb(203,249,249)"/><path d=" M 520.853 534.727 C 522.33 533.327 522.33 531.057 520.853 529.657 C 511.248 520.55 495.703 520.549 486.098 529.657 C 484.621 531.057 484.621 533.327 486.098 534.727 C 487.574 536.127 489.968 536.127 491.444 534.727 C 498.094 528.422 508.855 528.422 515.506 534.727 C 516.982 536.127 519.376 536.127 520.853 534.727 L 520.853 534.727 Z " fill="rgb(203,249,249)"/><path d=" M 477.409 521.418 C 487.205 512.13 501.119 509.156 513.552 512.498 C 519.405 514.072 524.93 517.045 529.541 521.418 C 530.28 522.118 531.247 522.468 532.215 522.468 C 535.553 522.468 537.277 518.613 534.888 516.348 C 524.448 506.448 510.126 502.501 496.589 504.507 C 487.614 505.837 478.985 509.784 472.063 516.348 C 470.586 517.748 470.586 520.018 472.063 521.418 C 473.539 522.819 475.933 522.819 477.409 521.418 L 477.409 521.418 Z " fill="rgb(203,249,249)"/><path d=" M 522.035 439.036 L 405.109 415.386 L 638.961 415.386 L 522.035 439.036 Z " fill-rule="evenodd" fill="rgb(177,208,234)"/></g></svg>