<!--created by Vitaly Gorbachev-->
<svg id="Layer_1" enable-background="new 0 0 480.32 480.32" height="512" viewBox="0 0 480.32 480.32" width="512" xmlns="http://www.w3.org/2000/svg"><path d="m480 272.071v99.323c0 4.418-3.582 8-8 8h-19c-4.418 0-8-3.582-8-8s3.582-8 8-8h11v-91.323c0-12.769-6.157-24.863-16.47-32.35-30.624-22.232-89.461-55.649-162.503-51.845l5.209 40.109c.569 4.381-2.522 8.395-6.903 8.964-4.383.569-8.395-2.523-8.964-6.903l-5.293-40.755c-47.181 5.913-91.33 26.596-128.14 60.199h202.125c12.148 0 23.493-5.421 31.124-14.874 2.775-3.438 7.812-3.975 11.25-1.2s3.975 7.812 1.2 11.25c-10.683 13.234-26.565 20.824-43.573 20.824h-220.486l-88.999 24.722c-10.349 2.875-17.577 12.384-17.577 23.125v47.958h12c4.418 0 8 3.582 8 8s-3.582 8-8 8h-20c-4.418 0-8-3.582-8-8v-55.958c0-17.901 12.046-33.75 29.294-38.541l87.806-24.391c87.145-91.014 222.433-108.86 339.829-23.632 14.446 10.488 23.071 27.421 23.071 45.298zm-315 97.419c0 30.878-25.122 56-56 56s-56-25.122-56-56 25.122-56 56-56 56 25.122 56 56zm-16 0c0-22.056-17.944-40-40-40s-40 17.944-40 40 17.944 40 40 40 40-17.943 40-40zm278 0c0 30.878-25.122 56-56 56s-56-25.122-56-56 25.122-56 56-56 56 25.122 56 56zm-16 0c0-22.056-17.944-40-40-40s-40 17.944-40 40 17.944 40 40 40 40-17.943 40-40zm-118-6h-103c-4.418 0-8 3.582-8 8s3.582 8 8 8h103c4.418 0 8-3.582 8-8s-3.582-8-8-8zm129.107-225.245c9.357 9.357 2.811 25.606-10.607 25.606-13.262 0-20.062-16.151-10.607-25.606 2.834-2.833 6.601-4.394 10.607-4.394 6.738.001 10.607 4.394 10.607 4.394zm26.163-14.849c3.125-3.124 3.125-8.19 0-11.314-20.323-20.323-53.215-20.324-73.539 0-3.125 3.124-3.125 8.189 0 11.314 3.124 3.124 8.189 3.124 11.313 0 14.07-14.07 36.84-14.071 50.912 0 3.124 3.124 8.189 3.124 11.314 0zm-91.924-29.699c30.484-30.484 79.822-30.486 110.309 0 1.562 1.562 3.609 2.343 5.657 2.343 7.063 0 10.711-8.603 5.657-13.657-36.737-36.736-96.197-36.74-132.936 0-3.125 3.124-3.125 8.189 0 11.314 3.123 3.125 8.189 3.125 11.313 0z"/></svg>
