<?xml version="1.0" encoding="UTF-8" standalone="no"?><!-- Generator: Gravit.io -->
<svg xmlns="http://www.w3.org/2000/svg" xmlns:xlink="http://www.w3.org/1999/xlink" style="isolation:isolate" viewBox="874.335 419.5 121.329 122" width="121.329pt" height="122pt">
<g id="car_button">
<ellipse vector-effect="non-scaling-stroke" cx="935" cy="480.5" rx="60.664517452369296" ry="61" fill="rgb(203,249,249)"/>
<g>
<path d=" M 920.516 496.56 C 920.516 501.37 916.389 505.283 911.317 505.283 C 906.245 505.283 902.119 501.37 902.119 496.56 C 902.119 491.751 906.245 487.838 911.317 487.838 C 916.389 487.838 920.516 491.751 920.516 496.56 Z  M 963.552 496.56 C 963.552 501.37 959.426 505.283 954.354 505.283 C 949.282 505.283 945.155 501.37 945.155 496.56 C 945.155 491.751 949.282 487.838 954.354 487.838 C 959.426 487.838 963.552 491.751 963.552 496.56 Z  M 972.258 481.386 L 972.258 496.857 C 972.258 497.545 971.67 498.103 970.944 498.103 L 967.823 498.103 C 967.097 498.103 966.509 497.545 966.509 496.857 C 966.509 496.169 967.097 495.611 967.823 495.611 L 969.63 495.611 L 969.63 481.386 C 969.63 479.397 968.618 477.514 966.924 476.348 C 961.894 472.885 952.23 467.68 940.232 468.272 L 941.087 474.52 C 941.181 475.202 940.673 475.827 939.953 475.916 C 939.233 476.004 938.574 475.523 938.481 474.841 L 937.612 468.493 C 929.862 469.414 922.61 472.635 916.563 477.869 L 949.764 477.869 C 951.76 477.869 953.623 477.025 954.877 475.552 C 955.333 475.017 956.16 474.933 956.725 475.365 C 957.289 475.798 957.378 476.582 956.922 477.118 C 955.167 479.179 952.558 480.361 949.764 480.361 L 913.547 480.361 L 898.928 484.212 C 897.228 484.66 896.041 486.141 896.041 487.814 L 896.041 495.284 L 898.012 495.284 C 898.738 495.284 899.326 495.842 899.326 496.53 C 899.326 497.218 898.738 497.776 898.012 497.776 L 894.727 497.776 C 894.001 497.776 893.413 497.218 893.413 496.53 L 893.413 487.814 C 893.413 485.026 895.392 482.557 898.225 481.811 L 912.648 478.012 C 926.962 463.835 949.185 461.056 968.468 474.331 C 970.841 475.964 972.258 478.602 972.258 481.386 L 972.258 481.386 Z  M 917.888 496.56 C 917.888 493.125 914.94 490.33 911.317 490.33 C 907.694 490.33 904.747 493.125 904.747 496.56 C 904.747 499.995 907.694 502.79 911.317 502.79 C 914.94 502.79 917.888 499.996 917.888 496.56 Z  M 960.924 496.56 C 960.924 493.125 957.977 490.33 954.354 490.33 C 950.731 490.33 947.783 493.125 947.783 496.56 C 947.783 499.995 950.731 502.79 954.354 502.79 C 957.977 502.79 960.924 499.996 960.924 496.56 Z  M 941.541 495.626 L 924.622 495.626 C 923.897 495.626 923.308 496.183 923.308 496.872 C 923.308 497.56 923.897 498.118 924.622 498.118 L 941.541 498.118 C 942.267 498.118 942.855 497.56 942.855 496.872 C 942.855 496.183 942.267 495.626 941.541 495.626 Z  M 934.943 453.591 C 936.48 455.048 935.405 457.579 933.201 457.579 C 931.022 457.579 929.906 455.063 931.459 453.591 C 931.924 453.149 932.543 452.906 933.201 452.906 C 934.308 452.906 934.943 453.591 934.943 453.591 Z  M 939.241 451.278 C 939.754 450.791 939.754 450.002 939.241 449.515 C 935.902 446.35 930.5 446.35 927.161 449.515 C 926.648 450.002 926.648 450.791 927.161 451.278 C 927.674 451.764 928.506 451.764 929.019 451.278 C 931.331 449.086 935.071 449.086 937.382 451.278 C 937.895 451.764 938.727 451.764 939.241 451.278 L 939.241 451.278 Z  M 924.141 446.652 C 927.546 443.423 932.382 442.39 936.703 443.552 C 938.738 444.099 940.658 445.132 942.261 446.652 C 942.517 446.895 942.853 447.017 943.19 447.017 C 944.35 447.017 944.949 445.677 944.119 444.89 C 940.491 441.449 935.512 440.077 930.808 440.774 C 927.688 441.236 924.689 442.608 922.283 444.89 C 921.77 445.376 921.77 446.165 922.283 446.652 C 922.796 447.139 923.628 447.139 924.141 446.652 L 924.141 446.652 Z " fill-rule="evenodd" fill="rgb(2,2,2)"/>
</g>
</g>
</svg>
