<svg height="512pt" viewBox="0 0 512 512" width="512pt" xmlns="http://www.w3.org/2000/svg"><path d="m256 512c141.386719 0 256-114.613281 256-256s-114.613281-256-256-256-256 114.613281-256 256c.160156 141.320312 114.679688 255.839844 256 256zm0-494.933594c131.960938 0 238.933594 106.972656 238.933594 238.933594s-106.972656 238.933594-238.933594 238.933594-238.933594-106.972656-238.933594-238.933594c.152344-131.898438 107.035156-238.78125 238.933594-238.933594zm0 0"/><path d="m196.617188 283.65625c3.292968-30.3125 28.890624-53.277344 59.382812-53.277344s56.089844 22.964844 59.382812 53.277344c.960938 8.589844 8.253907 15.066406 16.898438 15.011719h118.277344c8.488281.011719 15.695312-6.21875 16.914062-14.617188 1.25-9.300781 1.871094-18.667969 1.859375-28.050781.035157-117.820312-95.449219-213.363281-213.269531-213.398438-117.820312-.035156-213.359375 95.449219-213.394531 213.269532-.027344 9.417968.589843 18.828125 1.84375 28.160156 1.210937 8.414062 8.429687 14.652344 16.929687 14.636719h118.277344c8.644531.054687 15.9375-6.421875 16.898438-15.011719zm105.230468-55.191406 42.558594-29.101563c.691406-.445312 1.601562-.335937 2.167969.261719.5625.597656.621093 1.515625.136719 2.179688l-29.074219 42.523437c-4.460938-6.03125-9.777344-11.375-15.789063-15.863281zm-240.40625 53.246094c-1.15625-8.5625-1.726562-17.191407-1.707031-25.832032.019531-70.117187 37.449219-134.898437 98.183594-169.941406 60.734375-35.039062 135.550781-35.015625 196.265625.0625s98.105468 99.878906 98.082031 170c.007813 8.558594-.535156 17.109375-1.621094 25.601562h-.085937l-118.21875.21875c-.773438-7.210937-2.566406-14.28125-5.324219-20.992187l33.714844-49.304687c5.171875-7.445313 4.285156-17.523438-2.105469-23.949219-6.394531-6.429688-16.464844-7.371094-23.9375-2.238281l-49.433594 33.800781c-22.289062-9.199219-47.605468-7.382813-68.355468 4.898437-20.746094 12.28125-34.515626 33.601563-37.179688 57.566406zm0 0"/><path d="m265.914062 331.519531c2.273438-.507812 4.5-1.203125 6.65625-2.074219.179688-.074218.324219-.1875.503907-.261718 4.878906-2.117188 9.320312-5.125 13.089843-8.875.855469-.855469 1.410157-1.769532 2.144532-2.628906 1.117187-1.214844 2.164062-2.496094 3.128906-3.832032.726562-1.1875 1.390625-2.40625 1.988281-3.660156.722657-1.21875 1.378907-2.472656 1.972657-3.753906.46875-1.144532.726562-2.332032 1.09375-3.5.53125-1.488282.980468-3.007813 1.339843-4.546875.238281-1.214844.238281-2.460938.375-3.6875.234375-1.511719.386719-3.035157.460938-4.566407-.074219-1.527343-.226563-3.050781-.460938-4.566406-.136719-1.226562-.136719-2.472656-.375-3.683594-.359375-1.542968-.808593-3.058593-1.339843-4.550781-.367188-1.167969-.625-2.355469-1.09375-3.496093-.59375-1.285157-1.25-2.539063-1.972657-3.757813-.597656-1.25-1.261719-2.472656-1.988281-3.660156-.964844-1.335938-2.011719-2.617188-3.128906-3.832031-.734375-.851563-1.324219-1.808594-2.144532-2.625-3.773437-3.753907-8.214843-6.761719-13.097656-8.875-.179687-.078126-.324218-.1875-.503906-.265626-2.15625-.871093-4.382812-1.566406-6.65625-2.074218-.46875-.109375-.902344-.324219-1.382812-.417969-5.628907-1.148437-11.433594-1.148437-17.066407 0-.476562.09375-.910156.308594-1.382812.417969-2.269531.507812-4.496094 1.203125-6.65625 2.074218-.175781.078126-.324219.1875-.5.265626-4.882813 2.113281-9.320313 5.125-13.09375 8.875-.851563.851562-1.40625 1.765624-2.140625 2.625-1.117188 1.214843-2.164063 2.496093-3.132813 3.832031-.722656 1.1875-1.386719 2.410156-1.988281 3.660156-.71875 1.21875-1.378906 2.472656-1.96875 3.757813-.46875 1.140624-.726562 2.328124-1.09375 3.496093-.53125 1.492188-.980469 3.007813-1.339844 4.550781-.238281 1.210938-.238281 2.457032-.375 3.683594-.234375 1.515625-.382812 3.039063-.453125 4.566406.074219 1.53125.226563 3.054688.460938 4.566407.136719 1.226562.136719 2.472656.375 3.6875.359375 1.539062.808593 3.058593 1.339843 4.546875.367188 1.167968.625 2.355468 1.09375 3.5.59375 1.28125 1.25 2.535156 1.972657 3.753906.597656 1.253906 1.261719 2.472656 1.988281 3.660156.964844 1.335938 2.011719 2.617188 3.128906 3.832032.734375.851562 1.324219 1.808593 2.144532 2.628906 3.773437 3.75 8.214843 6.757812 13.097656 8.875.179687.074218.324218.1875.503906.261718 2.15625.871094 4.382812 1.566407 6.65625 2.074219.46875.113281.902344.324219 1.382812.417969 5.628907 1.148438 11.433594 1.148438 17.066407 0 .46875-.09375.902343-.304688 1.371093-.417969zm-27.203124-22.613281c-.757813-.714844-1.472657-1.472656-2.132813-2.277344-.65625-.714844-1.269531-1.464844-1.84375-2.246094-.449219-.734374-.859375-1.496093-1.226563-2.277343-.417968-.703125-.800781-1.425781-1.144531-2.167969-.300781-.714844-.460937-1.492188-.699219-2.234375-.296874-.839844-.550781-1.695313-.761718-2.5625-.132813-.871094-.222656-1.75-.261719-2.636719-.148437-1.546875-.148437-3.109375 0-4.65625.039063-.882812.128906-1.765625.261719-2.636718.210937-.867188.464844-1.722657.761718-2.5625.238282-.742188.398438-1.519532.699219-2.234376.296875-.71875.757813-1.449218 1.144531-2.175781.367188-.777343.777344-1.535156 1.226563-2.269531.574219-.78125 1.1875-1.53125 1.84375-2.246094 2.496094-2.988281 5.644531-5.371094 9.199219-6.960937.089844-.054688.183594-.101563.28125-.144531 1.292968-.523438 2.625-.941407 3.984375-1.246094.28125-.070313.546875-.199219.855469-.25 3.375-.691406 6.859374-.691406 10.238281 0 .289062.050781.554687.179687.855469.25 1.359374.304687 2.691406.722656 3.984374 1.246094.109376 0 .203126.117187.316407.160156 3.550781 1.59375 6.691406 3.976562 9.1875 6.964844.644531.710937 1.25 1.453124 1.820312 2.226562.445313.734375.855469 1.492188 1.226563 2.269531.382812.726563.855468 1.425781 1.144531 2.175781s.460937 1.492188.699219 2.234376c.296875.839843.550781 1.695312.757812 2.5625.171875.851562.191406 1.78125.273438 2.6875.136718 1.515624.136718 3.039062 0 4.554687-.082032.90625-.101563 1.820313-.273438 2.6875-.207031.867187-.460937 1.722656-.757812 2.5625-.238282.742187-.402344 1.519531-.699219 2.234375-.300781.71875-.761719 1.453125-1.144531 2.175781-.371094.777344-.78125 1.535157-1.226563 2.269531-.570312.773438-1.175781 1.519532-1.820312 2.226563-4.449219 5.367187-10.914063 8.652344-17.871094 9.089844-6.957031.433593-13.78125-2.023438-18.863281-6.792969zm0 0"/><path d="m153.675781 141.652344c8.898438-8.023438 18.71875-14.957032 29.253907-20.660156 2.097656-1.175782 4.214843-2.269532 6.511718-3.34375l6.425782 15.515624c1.316406 3.191407 4.429687 5.273438 7.882812 5.273438 1.121094-.003906 2.230469-.222656 3.269531-.648438 2.089844-.867187 3.753907-2.53125 4.617188-4.621093.867187-2.09375.867187-4.441407 0-6.535157l-6.417969-15.496093c6.515625-2.351563 13.195312-4.214844 19.984375-5.578125 2.457031-.554688 4.914063-.949219 7.449219-1.339844.171875 0 .351562-.0625.519531-.105469 4.515625-.628906 9.105469-1.117187 13.65625-1.433593h.648437v16.785156c0 4.714844 3.820313 8.535156 8.53125 8.535156 4.714844 0 8.535157-3.820312 8.535157-8.535156v-16.84375h.519531c4.660156.324218 9.257812.855468 13.753906 1.441406l.539063.105469c2.558593.390625 4.992187.785156 7.679687 1.378906 6.722656 1.367187 13.335938 3.21875 19.789063 5.539063l-6.449219 15.507812c-.867188 2.089844-.871094 4.441406-.003906 6.53125.867187 2.089844 2.527344 3.753906 4.617187 4.621094 1.039063.425781 2.148438.644531 3.269531.648437 3.453126 0 6.566407-2.082031 7.886719-5.273437l6.414063-15.515625.085937.042969c2.195313 1.015624 4.320313 2.125 6.546875 3.363281 10.496094 5.695312 20.277344 12.625 29.132813 20.640625l-11.820313 11.8125c-3.332031 3.332031-3.332031 8.738281 0 12.074218 3.335938 3.332032 8.742188 3.332032 12.074219 0l11.769531-11.863281c8.027344 8.886719 14.960938 18.703125 20.660156 29.234375 1.167969 2.109375 2.269532 4.269532 3.351563 6.53125l-15.523437 6.425782c-4.351563 1.804687-6.421876 6.796874-4.613282 11.152343 1.804688 4.355469 6.796875 6.421875 11.152344 4.617188l15.503906-6.425781c2.339844 6.511718 4.203125 13.183593 5.574219 19.964843.542969 2.46875.945313 4.933594 1.335937 7.476563 0 .152344.054688.316406.085938.46875.640625 4.53125 1.128906 9.132812 1.445312 13.707031v.636719h-16.785156c-4.714844 0-8.535156 3.824218-8.535156 8.535156s3.820312 8.535156 8.535156 8.535156h25.597656c4.714844 0 8.535157-3.824218 8.535157-8.535156 0-3.414062-.09375-6.828125-.273438-10.238281-.359375-5.160157-.894531-10.230469-1.605469-15.207031 0-.25-.066406-.496094-.121093-.726563-.441407-2.851563-.902344-5.613281-1.484375-8.21875-1.5625-7.855469-3.738282-15.578125-6.5-23.097656-.8125-2.449219-1.75-4.855469-2.808594-7.210938-.042969-.152343-.101562-.308593-.152344-.445312-.003906-.058594-.003906-.117188 0-.179688 0-.066406-.09375-.109375-.128906-.1875-1.152344-2.890625-2.457031-5.699219-3.71875-8.320312-1.265625-2.617188-2.484375-5.050781-3.808594-7.4375-7.765625-14.386719-17.585937-27.5625-29.148437-39.117188-.085938-.085937-.113281-.214843-.195313-.300781-.085937-.085938-.214844-.117188-.308594-.203125-11.523437-11.535156-24.65625-21.328125-38.996093-29.082031-2.484375-1.382813-4.976563-2.671875-7.433594-3.816406-2.722656-1.3125-5.554687-2.609376-8.449219-3.769532-.066406 0-.109375-.09375-.1875-.128906s-.136718 0-.195312 0l-.445313-.160156c-2.257812-1.019532-4.566406-1.925782-6.917969-2.707032-7.546874-2.769531-15.296874-4.957031-23.179687-6.546874-2.753906-.621094-5.503906-1.074219-8.34375-1.515626-.257813-.0625-.519531-.105468-.785156-.136718-4.976563-.710938-10.042969-1.246094-15.359375-1.613282-6.773438-.367187-13.5625-.367187-20.335938 0-5.160156.359376-10.226562.890626-15.207031 1.601563-.261719.035156-.515625.078125-.765625.128906-2.851562.453125-5.597656.855469-8.167969 1.484375-7.855469 1.574219-15.578125 3.746094-23.097656 6.496094-2.445313.808594-4.847656 1.742188-7.195313 2.796875l-.445312.164063c-.066406 0-.136719 0-.195312 0-.058594 0-.117188.09375-.1875.128906-2.890626 1.152344-5.71875 2.457031-8.335938 3.71875-2.621094 1.261718-5.0625 2.484375-7.433594 3.804687-14.378906 7.765625-27.554687 17.582031-39.109375 29.144531-.09375.082032-.210937.109376-.304687.203126s-.113282.214843-.199219.296874c-11.539063 11.527344-21.34375 24.675782-29.097656 39.023438-1.375 2.484375-2.671875 4.96875-3.804688 7.425781-1.367187 2.832031-2.738281 5.75-3.652343 8.164063l-.09375.242187c0 .074219-.113282.125-.152344.210938-.042969.085937 0 .179687-.054688.273437-.050781.09375-.109375.257813-.160156.402344-1.015625 2.25-1.90625 4.550781-2.679688 6.894531-2.796874 7.546875-4.988281 15.308594-6.5625 23.203125-.613281 2.753906-1.082031 5.519532-1.527343 8.359375-.050781.242188-.085938.488281-.121094.746094-.707031 4.980469-1.242187 10.042969-1.601563 15.359375-.207031 3.265625-.300781 6.679688-.300781 10.09375 0 4.710938 3.820313 8.535156 8.535157 8.535156h25.597656c4.714844 0 8.535156-3.824218 8.535156-8.535156s-3.820312-8.535156-8.535156-8.535156h-16.835938c0-.167969 0-.355469 0-.519532.3125-4.679687.796875-9.285156 1.445313-13.816406 0-.152344.058593-.3125.082031-.476562.394531-2.558594.796875-5.007813 1.382812-7.636719 1.359376-6.726563 3.214844-13.34375 5.546876-19.796875l15.488281 6.417969c2.816406 1.167969 6.042969.742187 8.464843-1.113281 2.417969-1.855469 3.664063-4.863282 3.265626-7.886719-.394532-3.023438-2.375-5.601563-5.191407-6.769531l-15.5-6.425782v-.078125c1.027344-2.203125 2.136719-4.328125 3.363281-6.554687 5.707032-10.496094 12.648438-20.277344 20.675782-29.132813l11.8125 11.820313c3.332031 3.332031 8.738281 3.332031 12.074218 0 3.332032-3.335938 3.332032-8.742188 0-12.074219zm0 0"/><path d="m187.734375 366.933594c4.710937 0 8.53125-3.820313 8.53125-8.535156 0-4.710938-3.820313-8.53125-8.53125-8.53125h-17.066406c-9.425781 0-17.066407 7.640624-17.066407 17.066406v59.734375c0 4.710937 3.820313 8.53125 8.53125 8.53125 4.714844 0 8.535157-3.820313 8.535157-8.53125v-25.601563h17.066406c4.710937 0 8.53125-3.820312 8.53125-8.53125 0-4.714844-3.820313-8.535156-8.53125-8.535156h-17.066406v-17.066406zm0 0"/><path d="m247.464844 349.867188c-4.710938 0-8.53125 3.820312-8.53125 8.53125v51.203124c0 4.710938-3.820313 8.53125-8.535156 8.53125-4.710938 0-8.53125-3.820312-8.53125-8.53125v-51.203124c0-4.710938-3.820313-8.53125-8.535157-8.53125-4.710937 0-8.53125 3.820312-8.53125 8.53125v51.203124c0 14.136719 11.460938 25.597657 25.597657 25.597657 14.140624 0 25.601562-11.460938 25.601562-25.597657v-51.203124c0-4.710938-3.820312-8.53125-8.535156-8.53125zm0 0"/><path d="m298.667969 366.933594c4.710937 0 8.53125-3.820313 8.53125-8.535156 0-4.710938-3.820313-8.53125-8.53125-8.53125h-17.066407c-9.425781 0-17.066406 7.640624-17.066406 17.066406v51.199218c0 9.425782 7.640625 17.066407 17.066406 17.066407h17.066407c4.710937 0 8.53125-3.820313 8.53125-8.53125 0-4.714844-3.820313-8.535157-8.53125-8.535157h-17.066407v-17.066406h17.066407c4.710937 0 8.53125-3.820312 8.53125-8.53125 0-4.714844-3.820313-8.535156-8.53125-8.535156h-17.066407v-17.066406zm0 0"/><path d="m358.398438 418.132812h-25.597657v-59.734374c0-4.710938-3.820312-8.53125-8.535156-8.53125-4.710937 0-8.53125 3.820312-8.53125 8.53125v68.269531c0 4.710937 3.820313 8.53125 8.53125 8.53125h34.132813c4.714843 0 8.535156-3.820313 8.535156-8.53125 0-4.714844-3.820313-8.535157-8.535156-8.535157zm0 0"/></svg>