<svg height="512pt" viewBox="0 -30 512.06004 512" width="512pt" xmlns="http://www.w3.org/2000/svg"><path d="m102.605469 414.839844c.09375.042968.160156.128906.246093.164062 1.066407.445313 2.207032.675782 3.363282.679688 2.390625-.007813 4.660156-1.039063 6.238281-2.832032l23.355469-22.613281c2.328125-2.085937 3.328125-5.28125 2.605468-8.320312-.722656-3.042969-3.046874-5.445313-6.066406-6.265625-3.015625-.820313-6.238281.074218-8.402344 2.332031l-17.550781 16.988281c-20.464843-22.167968-35.746093-48.609375-44.734375-77.414062l23.535156-6.707032c4.476563-1.339843 7.039063-6.023437 5.757813-10.515624-1.28125-4.492188-5.933594-7.117188-10.441406-5.894532l-23.277344 6.640625c-6.546875-29.359375-6.492187-59.804687.160156-89.140625l23.6875 5.976563c.683594.167969 1.382813.253906 2.085938.253906 4.304687 0 7.9375-3.210937 8.464843-7.488281.527344-4.277344-2.214843-8.273438-6.394531-9.320313l-23.398437-5.898437c9.035156-28.550782 24.175781-54.789063 44.375-76.894532l16.757812 17.304688c3.277344 3.390625 8.683594 3.480469 12.070313.203125 3.390625-3.277344 3.480469-8.683594.203125-12.070313l-17-17.554687c22.082031-20.425781 48.429687-35.6875 77.132812-44.679687l5.886719 23.484374c.953125 3.792969 4.359375 6.457032 8.269531 6.460938.703125-.003906 1.402344-.089844 2.082032-.257812 4.574218-1.144532 7.351562-5.78125 6.203124-10.351563l-5.972656-23.757813c29.339844-6.605468 59.78125-6.605468 89.125 0l-6.613281 23.1875c-.839844 2.933594-.046875 6.089844 2.074219 8.28125 2.121094 2.191407 5.25 3.082032 8.207031 2.339844 2.960937-.742187 5.296875-3.003906 6.136719-5.9375l6.679687-23.421875c28.664063 9.019531 55.007813 24.210938 77.175781 44.5l-17.28125 16.734375c-2.328124 2.085938-3.324218 5.277344-2.605468 8.320313.722656 3.042969 3.050781 5.445312 6.066406 6.265625 3.015625.820312 6.238281-.074219 8.402344-2.332032l17.519531-16.964843c20.488281 22.152343 35.773437 48.597656 44.746094 77.40625l-23.515625 6.707031c-2.96875.804688-5.273438 3.144531-6.03125 6.125-.761719 2.980469.140625 6.136719 2.359375 8.265625s5.410156 2.902344 8.355469 2.019531l23.195312-6.613281c6.566406 29.34375 6.53125 59.78125-.105469 89.113281l-23.59375-5.972656c-4.570312-1.148438-9.207031 1.625-10.355469 6.199219-1.148437 4.570312 1.628907 9.207031 6.199219 10.355469l23.3125 5.84375c-8.976562 28.570312-24.125 54.820312-44.371093 76.886718l-16.726563-17.28125c-2.113281-2.207031-5.25-3.109375-8.214844-2.375-2.964843.738282-5.3125 3.003906-6.148437 5.945313-.835938 2.9375-.039063 6.101562 2.09375 8.289062l23.039062 23.765625c2.480469 2.640625 6.390625 3.355469 9.644532 1.769532.125-.0625.21875-.164063.339843-.222657.753907-.347656 1.457031-.796875 2.082031-1.339843.121094-.128907.164063-.289063.28125-.417969.121094-.128907.128907-.078125.179688-.136719 27.125-27.285156 46.667969-61.171875 56.703125-98.3125.070313-.207031.195313-.367188.25-.574219.050781-.203125 0-.3125 0-.476562 9.984375-37.328125 9.964844-76.628907-.0625-113.945313v-.101562c-9.984375-37.222656-29.574219-71.164063-56.804687-98.433594-.152344-.179688-.207032-.410156-.375-.585938-.171876-.179687-.453126-.273437-.667969-.453124-27.246094-26.972657-60.984375-46.46875-97.960938-56.601563-.207031-.078125-.351562-.230469-.5625-.292969-.261719-.046875-.523437-.078125-.785156-.09375-75.960937-20.339844-157.003906 1.363282-212.632813 56.945313-.136718.117187-.316406.160156-.453124.289062-.136719.128907-.207032.351563-.351563.511719-27.089844 27.359375-46.636719 61.265625-56.746094 98.414062-.066406.199219-.214843.351563-.265625.554688-.050781.207031 0 .359375 0 .539062-20.363281 76.203126 1.5 157.484376 57.34375 213.1875.726563.679688 1.5625 1.226563 2.476563 1.613282zm0 0"/><path d="m264.59375 128.121094v-17.066406c0-4.714844-3.820312-8.535157-8.535156-8.535157-4.710938 0-8.53125 3.820313-8.53125 8.535157v17.066406c0 4.710937 3.820312 8.53125 8.53125 8.53125 4.714844 0 8.535156-3.820313 8.535156-8.53125zm0 0"/><path d="m133.554688 325.53125-14.789063 8.53125c-2.660156 1.515625-4.308594 4.339844-4.3125 7.402344-.007813 3.058594 1.625 5.890625 4.28125 7.417968 2.65625 1.523438 5.925781 1.507813 8.566406-.039062l14.789063-8.535156c2.660156-1.511719 4.308594-4.335938 4.316406-7.398438.003906-3.0625-1.628906-5.894531-4.285156-7.417968-2.65625-1.523438-5.925782-1.511719-8.566406.039062zm0 0"/><path d="m389.078125 349.988281c3.863281 0 7.242187-2.59375 8.242187-6.328125 1-3.730468-.632812-7.664062-3.976562-9.597656l-14.789062-8.53125c-4.078126-2.320312-9.261719-.910156-11.605469 3.152344-2.347657 4.058594-.972657 9.253906 3.074219 11.625l14.789062 8.535156c1.292969.75 2.765625 1.144531 4.265625 1.144531zm0 0"/><path d="m142.089844 188.996094-14.789063-8.53125c-4.078125-2.320313-9.261719-.910156-11.609375 3.148437-2.34375 4.0625-.972656 9.257813 3.074219 11.628907l14.789063 8.535156c2.640624 1.546875 5.910156 1.5625 8.566406.039062 2.65625-1.527344 4.289062-4.359375 4.285156-7.421875-.007812-3.058593-1.65625-5.882812-4.316406-7.398437zm0 0"/><path d="m186.648438 127.371094c-1.511719-2.664063-4.335938-4.3125-7.398438-4.316406-3.0625-.007813-5.894531 1.625-7.417969 4.28125-1.523437 2.65625-1.511719 5.925781.039063 8.566406l8.53125 14.78125c2.375 4.046875 7.566406 5.417968 11.628906 3.074218 4.0625-2.347656 5.46875-7.53125 3.152344-11.609374zm0 0"/><path d="m418.191406 264.652344c0-4.710938-3.820312-8.53125-8.53125-8.53125h-17.066406c-4.714844 0-8.535156 3.820312-8.535156 8.53125 0 4.714844 3.820312 8.535156 8.535156 8.535156h17.066406c4.710938 0 8.53125-3.820312 8.53125-8.535156zm0 0"/><path d="m93.925781 264.652344c0 4.714844 3.820313 8.535156 8.535157 8.535156h17.066406c4.710937 0 8.53125-3.820312 8.53125-8.535156 0-4.710938-3.820313-8.53125-8.53125-8.53125h-17.066406c-4.714844 0-8.535157 3.820312-8.535157 8.53125zm0 0"/><path d="m324.328125 154.949219c3.050781.003906 5.871094-1.625 7.398437-4.265625l8.53125-14.78125c1.550782-2.640625 1.5625-5.910156.039063-8.566406-1.527344-2.65625-4.355469-4.289063-7.417969-4.28125-3.0625.003906-5.886718 1.652343-7.398437 4.316406l-8.535157 14.777344c-1.523437 2.640624-1.523437 5.890624-.003906 8.53125 1.523438 2.636718 4.339844 4.265624 7.386719 4.269531zm0 0"/><path d="m220.714844 141.3125c.75 0 1.496094-.097656 2.21875-.296875 2.1875-.585937 4.050781-2.019531 5.183594-3.980469 1.128906-1.957031 1.4375-4.289062.847656-6.472656l-4.417969-16.488281c-.792969-2.945313-3.09375-5.246094-6.039063-6.03125-2.945312-.789063-6.089843.054687-8.242187 2.214843-2.15625 2.15625-2.996094 5.300782-2.207031 8.246094l4.429687 16.484375c1 3.726563 4.371094 6.316407 8.226563 6.324219zm0 0"/><path d="m390.152344 291.746094c-2.945313-.789063-6.085938.050781-8.242188 2.207031s-3 5.300781-2.210937 8.246094c.789062 2.945312 3.089843 5.246093 6.035156 6.035156l16.484375 4.417969c.722656.195312 1.46875.289062 2.21875.292968 4.28125-.003906 7.898438-3.179687 8.457031-7.425781.554688-4.246093-2.117187-8.246093-6.253906-9.351562zm0 0"/><path d="m121.96875 237.558594c.722656.195312 1.46875.292968 2.21875.292968 4.28125-.003906 7.898438-3.179687 8.453125-7.425781.558594-4.242187-2.117187-8.246093-6.253906-9.351562l-16.484375-4.421875c-4.554688-1.21875-9.234375 1.480468-10.453125 6.035156-1.222657 4.550781 1.480469 9.230469 6.03125 10.453125zm0 0"/><path d="m358.640625 174.148438 12.066406-12.074219c2.214844-2.140625 3.105469-5.316407 2.324219-8.296875-.78125-2.984375-3.109375-5.316406-6.09375-6.097656s-6.15625.109374-8.296875 2.328124l-12.074219 12.066407c-3.335937 3.335937-3.335937 8.742187 0 12.074219 3.332032 3.335937 8.738282 3.335937 12.074219 0zm0 0"/><path d="m153.480469 150.007812c-2.140625-2.21875-5.316407-3.109374-8.296875-2.328124-2.984375.78125-5.316406 3.113281-6.097656 6.097656-.777344 2.980468.109374 6.15625 2.328124 8.296875l12.066407 12.074219c3.335937 3.335937 8.742187 3.335937 12.074219 0 3.335937-3.332032 3.335937-8.738282 0-12.074219zm0 0"/><path d="m402.21875 216.652344-16.484375 4.421875c-4.136719 1.105469-6.8125 5.109375-6.257813 9.351562.558594 4.246094 4.175782 7.421875 8.457032 7.425781.75 0 1.496094-.097656 2.21875-.292968l16.488281-4.417969c4.550781-1.222656 7.253906-5.902344 6.03125-10.453125-1.21875-4.554688-5.902344-7.253906-10.453125-6.035156zm0 0"/><path d="m107.683594 312.945312c.746094-.003906 1.492187-.097656 2.21875-.292968l16.484375-4.417969c4.554687-1.222656 7.253906-5.902344 6.035156-10.453125-1.222656-4.554688-5.902344-7.253906-10.453125-6.035156l-16.488281 4.421875c-4.136719 1.105469-6.8125 5.105469-6.253907 9.351562.558594 4.246094 4.175782 7.421875 8.457032 7.425781zm0 0"/><path d="m291.40625 141.3125c3.855469-.007812 7.226562-2.597656 8.226562-6.324219l4.425782-16.484375c.792968-2.945312-.046875-6.089844-2.203125-8.246094-2.15625-2.160156-5.296875-3.003906-8.242188-2.214843-2.945312.785156-5.25 3.085937-6.039062 6.03125l-4.421875 16.488281c-.585938 2.183594-.28125 4.515625.851562 6.472656 1.132813 1.960938 2.996094 3.394532 5.183594 3.980469.722656.199219 1.46875.296875 2.21875.296875zm0 0"/><path d="m288.433594 292.121094 105.011718-92.320313c4.589844-4.027343 5.695313-10.734375 2.644532-16.019531-3.054688-5.289062-9.414063-7.683594-15.195313-5.722656l-131.910156 44.644531c-4.296875.742187-8.453125 2.148437-12.320313 4.164063l-.394531.136718c-.816406.3125-1.582031.753906-2.257812 1.304688-16.40625 9.863281-24.203125 29.464844-19.058594 47.902344 5.144531 18.433593 21.96875 31.164062 41.105469 31.109374 6.878906-.046874 13.640625-1.777343 19.695312-5.042968.953125-.316406 1.839844-.800782 2.621094-1.425782 3.785156-2.367187 7.179688-5.3125 10.058594-8.730468zm9.890625-31.410156c-1.117188-12.308594-7.535157-23.523438-17.585938-30.71875l85.453125-28.910157zm-67.863281 3.941406c.023437-9.023438 4.816406-17.363282 12.601562-21.929688l9.925781-3.363281c1.015625-.160156 2.042969-.265625 3.070313-.304687 14.140625 0 25.601562 11.460937 25.601562 25.597656-.015625 5.488281-1.8125 10.820312-5.121094 15.199218l-7.945312 6.980469c-3.808594 2.214844-8.128906 3.394531-12.535156 3.421875-14.136719 0-25.597656-11.460937-25.597656-25.601562zm0 0"/><path d="m264.59375 264.652344c0 4.714844-3.820312 8.535156-8.535156 8.535156-4.710938 0-8.53125-3.820312-8.53125-8.535156 0-4.710938 3.820312-8.53125 8.53125-8.53125 4.714844 0 8.535156 3.820312 8.535156 8.53125zm0 0"/><path d="m89.308594 450.332031c.339844.222657.691406.417969 1.058594.585938.484374.339843 1.007812.628906 1.554687.855469.59375.191406 1.203125.316406 1.824219.375.367187.105468.742187.183593 1.121094.238281h322.386718c1.066406-.011719 2.121094-.226563 3.105469-.632813.371094-.175781.726563-.382812 1.066406-.613281.476563-.21875.929688-.480469 1.359375-.785156 7.605469-6.453125 14.785156-13.394531 21.496094-20.777344.808594-.855469 1.535156-1.628906 1.996094-2.160156 2.558594-2.652344 4.941406-5.488281 6.824218-7.859375.15625-.160156.445313-.460938.589844-.640625 2.558594-3.121094 5.171875-6.40625 7.441406-9.539063 2.269532-3.132812 4.574219-6.203125 6.972657-9.746094.144531-.1875.289062-.382812.425781-.578124 2.039062-3.023438 3.992188-6.050782 5.707031-8.910157.054688-.066406.546875-.851562.589844-.929687l.667969-1.066406c1.902344-3.304688 3.8125-6.589844 5.664062-9.941407 3.960938-7.222656 7.535156-14.648437 10.710938-22.246093 1.707031-3.867188 3.242187-7.816407 4.597656-11.648438 1.519531-3.925781 2.859375-7.945312 4.113281-11.988281 1.152344-3.703125 2.210938-7.410157 3.199219-11.4375.148438-.351563.265625-.710938.351562-1.082031.972657-3.96875 1.945313-8.03125 2.722657-11.988282.851562-4.199218 1.570312-8.320312 2.292969-12.699218.617187-4.214844 1.144531-8.53125 1.589843-12.730469.441407-4.363281.792969-8.722657.964844-12.894531.261719-4.402344.355469-8.925782.355469-13.371094.007812-8.550782-.433594-17.097656-1.320313-25.601563-11.480469-114.542969-98.003906-207.339843-211.464843-226.792969-113.464844-19.449218-225.957032 39.222657-274.933594 143.402344-48.980469 104.179688-22.394532 228.238282 64.96875 303.203125zm166.75-433.144531c122.878906-.46875 225.894531 92.726562 237.699218 215.039062.828126 7.9375 1.242188 15.914063 1.234376 23.894532 0 4.085937-.074219 8.257812-.332032 12.457031-.160156 4.003906-.496094 8.003906-.914062 12.007813-.417969 4-.851563 8.039062-1.449219 11.84375-.675781 3.984374-1.332031 7.894531-2.175781 11.945312-.71875 3.660156-1.597656 7.324219-2.464844 10.90625-.167969.507812-.304688 1.027344-.410156 1.554688-.90625 3.453124-1.894532 6.917968-2.953125 10.359374-1.152344 3.660157-2.355469 7.320313-3.824219 11.09375-1.296875 3.632813-2.671875 7.191407-4.265625 10.863282-2.960937 7.105468-6.296875 14.050781-9.992187 20.800781-1.765626 3.191406-3.609376 6.382813-5.121094 9.105469l-.765625 1.203125-.480469.769531c-1.707031 2.851562-3.515625 5.625-5.382812 8.398438l-.453126.613281c-2.03125 3.011719-4.140624 6.023437-6.460937 9.042969-2.320313 3.023437-4.582031 6.035156-6.605469 8.535156-.175781.1875-.484375.519531-.65625.726562-1.96875 2.449219-4.035156 4.90625-6.511718 7.492188-.476563.542968-.953126 1.097656-1.800782 1.953125-5.664062 6.191406-11.691406 12.042969-18.046875 17.527343h-315.734375c-74.589844-65.671874-100.726562-170.667968-65.621094-263.644531 35.101563-92.976562 124.109376-154.5 223.488282-154.488281zm0 0"/></svg>